<?xml version="1.0" standalone="no"?>
<!DOCTYPE svg PUBLIC "-//W3C//DTD SVG 20010904//EN"
 "http://www.w3.org/TR/2001/REC-SVG-20010904/DTD/svg10.dtd">
<svg version="1.0" xmlns="http://www.w3.org/2000/svg"
 width="2000.000000pt" height="2000.000000pt" viewBox="0 0 2000.000000 2000.000000"
 preserveAspectRatio="xMidYMid meet">

<g transform="translate(0.000000,2000.000000) scale(0.100000,-0.100000)"
fill="#000000" stroke="none">
<path d="M6553 13776 c-205 -47 -375 -215 -428 -421 -18 -70 -20 -182 -4 -257
38 -186 191 -354 379 -419 93 -32 248 -33 345 -2 124 39 239 128 311 240 113
175 113 431 0 606 -71 111 -187 201 -305 238 -86 26 -217 33 -298 15z m447
-316 c11 -11 20 -28 20 -38 0 -15 -234 -303 -346 -424 -57 -63 -67 -58 -209
109 -132 155 -145 182 -105 218 34 30 62 12 160 -105 51 -60 94 -110 96 -110
1 0 66 75 144 168 78 92 151 175 162 185 26 23 53 22 78 -3z"/>
<path d="M13600 13296 c0 -9 5 -16 10 -16 6 0 10 4 10 9 0 6 -4 13 -10 16 -5
3 -10 -1 -10 -9z"/>
<path d="M13070 13290 c0 -5 5 -10 10 -10 6 0 10 5 10 10 0 6 -4 10 -10 10 -5
0 -10 -4 -10 -10z"/>
<path d="M12900 13276 c-19 -23 -8 -59 23 -73 15 -7 39 -19 54 -25 30 -15 36
-27 24 -47 -10 -15 -50 -18 -96 -7 -28 7 -29 7 -11 -8 36 -29 116 -17 130 19
10 28 -12 53 -64 70 -35 12 -50 22 -50 35 0 30 26 43 71 36 27 -4 38 -3 34 4
-10 16 -101 12 -115 -4z"/>
<path d="M13170 13237 c-35 -18 -48 -61 -29 -95 11 -21 24 -28 53 -30 20 -2
44 2 52 9 11 9 14 7 14 -15 0 -36 -39 -54 -81 -39 -16 6 -31 7 -34 3 -10 -16
60 -31 91 -20 40 16 44 25 44 111 0 73 -1 77 -22 76 -13 -1 -32 2 -43 6 -11 4
-31 1 -45 -6z m74 -23 c50 -49 -24 -124 -76 -77 -36 33 -13 93 37 93 13 0 31
-7 39 -16z"/>
<path d="M13377 13239 c-9 -5 -22 -7 -27 -4 -6 4 -10 -20 -10 -64 0 -41 4 -71
10 -71 6 0 10 24 10 53 0 57 12 77 45 77 33 0 45 -20 45 -77 0 -29 5 -53 10
-53 15 0 12 115 -3 128 -20 17 -61 23 -80 11z"/>
<path d="M13600 13176 c0 -44 4 -76 10 -76 6 0 10 30 10 69 0 39 -4 73 -10 76
-6 4 -10 -22 -10 -69z"/>
<path d="M13720 13240 c-8 -5 -23 -7 -32 -4 -16 5 -18 -3 -18 -65 0 -41 4 -71
10 -71 6 0 10 19 10 43 0 51 22 87 54 87 34 0 46 -19 46 -77 0 -29 5 -53 10
-53 6 0 10 25 10 55 0 77 -42 116 -90 85z"/>
<path d="M13070 13170 c0 -40 4 -70 10 -70 6 0 10 30 10 70 0 40 -4 70 -10 70
-6 0 -10 -30 -10 -70z"/>
<path d="M5078 12006 c-135 -39 -246 -158 -284 -305 -23 -91 -1 -202 58 -297
l24 -39 -24 -35 c-21 -30 -23 -43 -19 -95 5 -68 22 -107 69 -160 l31 -36 -6
-117 c-6 -131 -32 -244 -77 -340 -26 -55 -32 -62 -48 -53 -16 8 -28 0 -76 -48
l-58 -58 -91 -7 c-148 -11 -297 -36 -338 -56 -147 -76 -185 -290 -105 -603 13
-51 27 -118 31 -149 l6 -58 -398 0 c-413 0 -453 -4 -532 -44 -49 -26 -116 -99
-146 -161 -46 -94 -51 -161 -26 -408 24 -237 37 -293 84 -377 86 -153 239
-240 422 -240 l62 0 7 -107 c33 -520 138 -1089 277 -1493 33 -96 62 -183 66
-192 4 -15 -1 -18 -31 -18 -74 0 -148 -59 -162 -129 l-6 -31 445 0 446 0 3 83
3 82 -132 -3 -132 -3 -21 42 c-116 226 -231 696 -304 1239 -21 152 -56 468
-56 503 l0 27 89 0 89 0 3 -86 c4 -79 6 -87 32 -110 28 -24 31 -24 228 -24
l199 0 0 175 c0 111 4 183 12 200 l11 25 976 0 c537 0 1304 3 1705 7 l728 6
-16 -31 c-14 -28 -16 -112 -16 -791 l0 -759 114 -61 c63 -34 117 -61 120 -61
3 0 6 338 6 750 l0 750 1100 0 1101 0 24 25 c22 21 25 33 25 100 l0 75 45 0
c35 0 52 6 70 25 23 22 25 32 25 115 l0 90 80 0 c73 0 83 3 105 25 32 31 32
69 0 100 l-24 25 -1706 0 -1705 0 0 39 c0 45 -6 43 154 65 55 7 102 19 106 26
12 19 22 132 13 140 -4 4 -56 23 -116 43 l-107 36 -119 -42 -118 -41 -193 12
c-106 6 -196 16 -199 20 -11 16 -110 43 -168 46 -71 4 -204 54 -254 95 -29 24
-51 65 -115 208 -116 263 -266 557 -330 646 -34 48 -73 89 -101 107 -42 27
-205 73 -355 99 -33 6 -106 35 -177 71 l-121 60 0 43 c0 55 10 70 42 62 14 -4
53 -1 88 5 116 21 218 85 281 176 58 85 119 264 135 397 5 41 11 57 22 57 11
0 13 7 9 30 -5 24 -3 30 11 30 30 1 100 37 111 59 11 19 9 20 -19 14 l-31 -6
20 34 c33 53 24 134 -9 94 -7 -8 -15 -15 -19 -15 -3 0 -6 46 -7 103 0 111 -19
191 -57 249 -50 74 -195 118 -392 118 -104 0 -119 2 -146 22 -37 28 -149 34
-221 14z m288 -1813 c46 -34 63 -52 58 -63 -15 -36 -14 -54 10 -201 22 -132
55 -369 96 -672 16 -122 18 -116 -36 -105 -34 8 -48 7 -54 -2 -4 -6 -20 -10
-36 -8 l-29 3 -7 125 c-14 246 -65 731 -84 792 -3 9 -29 32 -59 51 l-53 33 56
47 c32 25 61 46 66 47 4 0 37 -21 72 -47z m1204 -1248 l0 -55 -290 0 c-270 0
-290 1 -290 18 0 9 4 23 8 29 8 12 404 59 520 62 l52 1 0 -55z"/>
<path d="M11582 10938 c-26 -27 -33 -30 -47 -18 -8 7 -18 10 -21 7 -8 -7 19
-47 31 -47 17 0 88 77 78 83 -5 3 -23 -8 -41 -25z"/>
<path d="M11881 10903 c1 -32 3 -50 6 -40 6 22 49 23 57 1 4 -9 9 -14 13 -11
3 4 0 13 -7 22 -7 8 -8 15 -2 15 16 0 23 30 12 51 -8 13 -21 19 -45 19 l-35 0
1 -57z m64 17 c0 -20 -6 -26 -27 -28 -25 -3 -28 0 -28 28 0 28 3 31 28 28 21
-2 27 -8 27 -28z"/>
<path d="M12531 10909 l-1 -56 31 1 c60 2 65 67 6 74 -14 2 -28 11 -30 20 -3
9 -5 -8 -6 -39z m64 -19 c0 -18 -6 -26 -23 -28 -24 -4 -38 18 -28 44 3 9 15
14 28 12 17 -2 23 -10 23 -28z"/>
<path d="M11991 10908 c-12 -31 4 -58 34 -58 13 0 26 4 29 8 2 4 -7 8 -21 7
-30 0 -42 21 -16 28 17 4 17 5 1 6 -21 1 -24 17 -5 24 9 4 9 6 -1 6 -7 1 -16
-9 -21 -21z"/>
<path d="M12039 10922 c7 -5 10 -15 7 -21 -4 -6 -2 -11 4 -11 17 0 8 33 -10
37 -12 4 -13 3 -1 -5z"/>
<path d="M12091 10886 l2 -41 6 35 c4 26 12 36 29 38 19 3 22 -1 23 -35 1 -39
3 -38 13 10 5 22 12 28 29 25 16 -2 24 -12 28 -38 6 -34 6 -34 8 -5 1 47 -8
53 -77 52 l-62 -1 1 -40z"/>
<path d="M12262 10918 c-29 -29 -2 -73 40 -65 20 4 20 4 -4 6 -28 1 -41 30
-15 32 6 0 3 4 -8 9 -18 7 -19 8 -2 15 9 4 25 4 34 1 15 -6 15 -8 3 -16 -13
-8 -12 -10 3 -10 12 0 17 6 15 18 -4 21 -48 28 -66 10z"/>
<path d="M12361 10892 c1 -36 2 -36 8 -7 9 45 44 41 52 -5 l6 -35 4 35 c3 27
9 36 26 38 18 3 22 -2 26 -32 l4 -36 -1 37 -1 38 -62 2 -63 3 1 -38z"/>
<path d="M12634 10916 c-3 -8 -4 -25 -2 -38 2 -18 10 -24 36 -26 17 -2 32 1
32 5 0 5 -12 9 -27 8 -23 0 -28 4 -28 25 0 18 6 26 23 28 26 4 30 -14 5 -21
-11 -3 -7 -5 10 -6 25 -1 27 1 17 19 -12 23 -58 27 -66 6z"/>
<path d="M12731 10885 c2 -33 3 -35 6 -10 2 17 11 35 20 42 13 10 13 12 -6 10
-18 -1 -21 -7 -20 -42z"/>
<path d="M12841 10887 l2 -42 6 35 c4 26 12 36 29 38 19 3 22 -1 23 -35 l2
-38 6 35 c4 26 12 36 29 38 19 3 22 -1 22 -32 0 -20 4 -36 9 -36 6 0 8 12 7
28 -2 15 -4 32 -5 38 -1 8 -25 12 -66 12 l-65 1 1 -42z"/>
<path d="M13004 10905 c-8 -32 11 -55 45 -54 25 1 25 2 -4 8 -22 5 -30 12 -31
29 -1 26 17 38 43 28 15 -6 15 -8 3 -16 -13 -8 -12 -10 3 -10 20 0 22 11 5 28
-22 22 -57 14 -64 -13z"/>
<path d="M11440 10296 l0 -323 31 -7 c17 -3 877 -6 1910 -6 l1879 0 0 330 0
330 -1910 0 -1910 0 0 -324z m2127 133 c16 -16 5 -39 -17 -39 -25 0 -35 18
-20 35 15 18 22 19 37 4z m-607 -109 l0 -100 60 0 c53 0 60 -2 60 -20 0 -18
-7 -20 -80 -20 l-80 0 0 120 c0 113 1 120 20 120 19 0 20 -7 20 -100z m284 21
c70 -61 13 -174 -80 -157 -87 17 -101 137 -21 171 36 15 73 10 101 -14z m204
17 l32 1 0 -95 c0 -89 -2 -97 -26 -121 -22 -22 -32 -25 -74 -21 -58 6 -86 24
-69 44 8 10 16 11 29 4 42 -22 100 -6 100 27 0 10 -5 11 -19 3 -71 -37 -151
37 -121 114 11 31 65 58 95 49 11 -3 35 -5 53 -5z m332 -28 c6 -10 10 -48 10
-84 0 -59 -2 -66 -20 -66 -18 0 -20 7 -20 59 0 77 -27 108 -70 81 -10 -6 -17
-32 -20 -72 -4 -49 -9 -64 -22 -66 -16 -3 -18 6 -18 87 l0 90 40 -1 c23 0 43
2 46 5 10 10 64 -15 74 -33z m-210 -60 c0 -83 -1 -90 -20 -90 -19 0 -20 7 -20
90 0 83 1 90 20 90 19 0 20 -7 20 -90z"/>
<path d="M13147 10312 c-33 -37 -11 -92 37 -92 31 0 46 19 46 57 0 49 -51 71
-83 35z"/>
<path d="M13350 10310 c-24 -24 -24 -29 -4 -58 18 -26 56 -29 78 -6 21 21 20
47 -2 67 -25 22 -48 21 -72 -3z"/>
<path d="M12652 9503 l2 -58 3 52 c4 50 5 52 36 56 31 4 31 4 -5 5 l-38 2 2
-57z"/>
<path d="M13225 9550 c-4 -7 3 -8 22 -4 38 9 42 14 10 14 -14 0 -29 -5 -32
-10z"/>
<path d="M13950 9541 c0 -14 -6 -17 -23 -14 -13 3 -29 -2 -36 -11 -15 -18 -11
-58 7 -64 11 -3 11 0 1 16 -17 27 -5 54 23 50 28 -4 36 -37 13 -54 -16 -12
-16 -13 4 -11 19 1 21 7 21 54 0 29 -2 53 -5 53 -3 0 -5 -8 -5 -19z"/>
<path d="M13990 9550 c-11 -7 -6 -8 18 -4 27 6 32 4 32 -13 0 -10 -5 -24 -12
-31 -6 -6 -9 -14 -7 -17 10 -9 32 43 26 59 -7 18 -34 21 -57 6z"/>
<path d="M13112 9533 c-8 -8 -9 -13 -2 -13 5 0 10 -16 10 -35 0 -30 3 -35 23
-34 16 1 18 2 5 6 -19 5 -26 58 -9 65 5 2 4 8 -3 14 -8 8 -15 7 -24 -3z"/>
<path d="M13298 9525 c3 -19 -1 -25 -21 -30 -14 -4 -31 -4 -36 0 -6 3 -11 1
-11 -4 0 -14 36 -14 61 -1 19 11 26 44 10 54 -4 3 -6 -6 -3 -19z"/>
<path d="M12754 9523 c-34 -25 -15 -77 26 -71 31 4 48 32 34 56 -12 19 -43 26
-60 15z m51 -33 c0 -19 -6 -26 -24 -28 -29 -4 -43 15 -30 41 15 28 54 19 54
-13z"/>
<path d="M12850 9515 c-7 -8 -9 -15 -6 -15 4 0 14 7 22 15 9 8 11 15 6 15 -5
0 -15 -7 -22 -15z"/>
<path d="M12913 9523 c-18 -7 -16 -48 2 -63 8 -7 24 -10 35 -7 21 5 29 -17 10
-26 -6 -3 -5 -4 2 -3 8 2 14 22 16 52 3 48 2 50 -25 51 -15 1 -34 -1 -40 -4z
m52 -33 c0 -18 -6 -26 -23 -28 -24 -4 -38 18 -28 44 3 9 15 14 28 12 17 -2 23
-10 23 -28z"/>
<path d="M13020 9516 c-17 -22 -8 -60 15 -64 19 -4 19 -3 1 10 -24 19 -17 52
12 56 28 4 40 -23 23 -50 -10 -16 -10 -19 1 -16 33 11 15 78 -22 78 -10 0 -23
-7 -30 -14z"/>
<path d="M13336 9521 c-3 -4 6 -6 19 -3 30 5 44 -21 26 -49 -9 -15 -8 -19 4
-19 16 0 20 34 9 64 -6 17 -49 22 -58 7z"/>
<path d="M13427 9523 c-10 -10 -8 -33 3 -33 5 0 7 6 4 14 -4 10 3 16 23 19 27
4 27 4 2 6 -14 0 -29 -2 -32 -6z"/>
<path d="M13507 9523 c-15 -14 -6 -33 18 -39 27 -7 33 -19 13 -27 -8 -3 -6 -6
5 -6 26 -1 22 37 -5 41 -32 5 -33 26 -1 31 27 4 28 4 2 6 -14 0 -29 -2 -32 -6z"/>
<path d="M13585 9493 c21 -50 23 -51 39 -12 l15 34 11 -32 c7 -18 16 -33 20
-33 9 0 32 61 26 68 -3 2 -8 -7 -12 -22 -8 -34 -17 -33 -33 7 l-13 32 -15 -35
-16 -35 -13 33 c-8 17 -16 32 -19 32 -3 0 2 -17 10 -37z"/>
<path d="M13732 9521 c-18 -11 -11 -63 8 -68 12 -4 12 -3 2 5 -8 5 -12 20 -10
33 2 18 9 24 28 24 31 0 40 -33 14 -53 -11 -8 -13 -12 -5 -10 8 2 19 12 25 21
21 33 -27 71 -62 48z"/>
<path d="M13823 9508 c1 -10 2 -18 2 -18 0 0 8 9 17 19 16 18 15 20 -2 18 -11
-1 -18 -8 -17 -19z"/>
<path d="M13330 9470 c0 -11 4 -20 8 -20 4 0 8 9 8 20 0 11 -4 20 -8 20 -4 0
-8 -9 -8 -20z"/>
<path d="M13459 9481 c7 -5 10 -14 7 -20 -7 -11 6 -16 17 -5 10 10 -5 34 -22
34 -13 0 -13 -2 -2 -9z"/>
<path d="M5473 8312 l-553 -2 0 -105 0 -105 388 -1 c726 -1 694 -2 715 19 11
11 22 44 27 83 14 91 12 106 -7 110 -10 2 -267 3 -570 1z"/>
<path d="M4316 8069 c-2 -8 -6 -44 -9 -80 l-4 -66 105 -7 c58 -3 142 -6 188
-6 l82 0 4 80 3 80 -145 0 c-80 0 -162 3 -182 6 -27 5 -39 3 -42 -7z"/>
<path d="M4918 7990 l4 -80 265 0 266 0 -7 53 c-3 28 -6 64 -6 80 l0 27 -262
0 -263 0 3 -80z"/>
<path d="M5713 8056 c3 -8 9 -42 13 -75 l7 -61 159 0 c147 0 159 1 154 18 -2
9 -12 43 -20 75 l-17 57 -150 0 c-127 0 -150 -2 -146 -14z"/>
<path d="M15645 7497 c93 -50 202 -165 253 -267 61 -122 82 -216 90 -395 5
-126 7 -143 15 -105 17 88 11 288 -12 374 -47 175 -161 322 -304 391 -92 44
-123 46 -42 2z"/>
<path d="M15385 7372 c-26 -79 -31 -245 -11 -339 30 -145 124 -309 255 -445
77 -81 148 -135 80 -62 -136 148 -252 344 -294 499 -22 83 -31 259 -16 336 7
33 11 63 8 65 -2 2 -12 -22 -22 -54z"/>
<path d="M16170 6476 c0 -1 23 -18 51 -37 56 -38 132 -131 160 -197 50 -115
63 -261 33 -363 -44 -146 -161 -324 -334 -506 -117 -123 -57 -81 84 60 184
183 268 315 302 477 38 183 -43 397 -193 512 -42 32 -103 64 -103 54z"/>
<path d="M4920 6398 l0 -48 253 1 252 1 -165 28 c-91 16 -204 37 -252 48 l-88
19 0 -49z"/>
<path d="M16014 6375 c3 -11 10 -72 16 -136 14 -161 2 -247 -49 -349 -49 -100
-66 -193 -57 -315 12 -164 22 -173 28 -25 8 169 20 224 72 325 l41 80 -1 140
c0 135 -17 241 -45 285 -8 12 -9 11 -5 -5z"/>
<path d="M4920 4930 l0 -1240 545 0 c300 0 545 -1 545 -2 0 -2 -11 -25 -25
-52 -45 -90 -53 -86 173 -87 184 -1 234 0 239 5 1 1 -2 18 -7 38 -14 49 -50
99 -87 123 -30 18 -32 25 -33 73 0 56 -19 114 -48 145 -40 45 -65 49 -566 93
-270 24 -492 43 -493 44 -2 0 -3 230 -3 512 0 454 2 513 16 529 41 45 43 74
44 577 l0 482 -150 0 -150 0 0 -1240z"/>
<path d="M16752 6141 c-74 -55 -71 -71 8 -33 40 19 72 26 118 26 62 1 63 1 41
19 -14 11 -39 17 -74 17 -42 0 -60 -6 -93 -29z"/>
<path d="M16933 5974 c-17 -14 -61 -36 -98 -49 -36 -12 -69 -25 -72 -29 -12
-12 98 -6 130 8 45 18 110 97 80 96 -5 -1 -22 -12 -40 -26z"/>
<path d="M15690 5277 c0 -4 11 -24 24 -45 50 -76 116 -337 186 -732 17 -96 32
-182 34 -190 8 -34 5 73 -4 175 -26 273 -94 559 -168 701 -22 41 -71 104 -72
91z"/>
<path d="M14854 5206 c-52 -23 -46 -31 24 -31 71 0 96 -12 220 -105 64 -48 50
-16 -25 59 -87 86 -148 107 -219 77z"/>
<path d="M15381 5156 c-78 -254 -30 -512 133 -718 65 -82 99 -96 41 -16 -60
81 -119 204 -146 304 -18 64 -22 108 -23 229 0 88 4 172 12 204 18 77 7 75
-17 -3z"/>
<path d="M11237 5012 c-11 -12 -17 -36 -17 -69 0 -90 -73 -83 848 -83 799 0
812 0 832 20 25 25 27 95 4 128 l-15 22 -818 0 c-780 0 -819 -1 -834 -18z"/>
<path d="M14730 4974 c0 -36 43 -88 94 -113 61 -30 175 -39 261 -20 l60 13
-85 8 c-203 19 -269 41 -310 104 -18 25 -20 26 -20 8z"/>
<path d="M8081 4243 c-1 -29 3 -53 8 -53 19 0 20 18 7 61 l-14 44 -1 -52z"/>
<path d="M15257 4162 l-258 -2 6 -33 c3 -17 28 -207 55 -422 28 -214 53 -407
56 -427 l6 -38 599 0 c329 0 599 4 599 8 0 12 109 852 115 884 l4 28 -462 2
c-254 2 -578 2 -720 0z"/>
<path d="M8080 3747 c0 -361 3 -383 59 -411 23 -13 63 -16 180 -16 l149 0 10
-30 c19 -54 42 -55 191 -10 l134 40 676 0 676 0 19 -35 c29 -53 55 -54 129 -6
62 40 65 41 153 41 57 0 94 4 102 12 7 7 12 39 12 73 l0 62 88 58 c239 159
299 226 262 295 -23 42 -45 43 -138 6 -48 -19 -128 -42 -177 -50 -108 -18
-198 -19 -188 -2 23 39 46 66 59 66 23 0 28 -29 9 -50 -10 -11 -13 -20 -7 -20
13 0 32 32 32 54 0 8 -9 20 -20 26 -18 9 -25 6 -47 -19 l-27 -31 -11 33 c-8
25 -16 32 -35 32 -28 0 -39 -32 -21 -62 8 -14 9 -11 5 14 -5 25 -3 34 11 39
22 9 35 -12 35 -58 0 -39 -7 -46 -28 -28 -6 6 -10 7 -7 4 7 -10 -15 -34 -30
-34 -7 0 -59 72 -115 160 -56 88 -107 160 -113 160 -15 -1 -240 -153 -244
-166 -1 -5 44 -81 101 -169 58 -87 102 -163 100 -167 -3 -4 -163 -8 -355 -8
l-350 0 -10 30 c-6 17 -15 31 -20 31 -5 1 -66 2 -136 4 -81 1 -155 8 -202 19
l-74 18 28 22 c53 43 6 89 -52 51 l-26 -17 6 30 c8 40 -14 72 -40 56 -13 -8
-18 -24 -19 -55 -1 -38 -1 -39 3 -7 5 44 25 65 42 44 9 -10 8 -23 -1 -51 -12
-34 -17 -38 -53 -41 l-40 -3 -43 179 c-24 99 -47 180 -50 180 -30 0 -292 -75
-292 -84 1 -6 20 -87 44 -181 l43 -170 -24 -13 c-12 -7 -23 -19 -23 -27 0 -11
-13 -15 -50 -15 l-50 0 0 200 c0 110 -1 200 -2 200 -2 0 -37 -9 -78 -20 -41
-11 -80 -20 -87 -20 -6 0 -19 24 -29 53 -44 132 -43 135 -44 -216z m877 -33
c9 -23 -23 -44 -66 -44 l-36 1 33 29 c36 34 60 38 69 14z"/>
<path d="M4260 4019 c-432 -38 -451 -41 -497 -91 -31 -33 -43 -71 -43 -136 0
-53 -2 -58 -29 -74 -44 -24 -89 -93 -97 -146 -20 -135 81 -252 215 -252 130 1
221 94 221 225 0 43 -29 117 -51 131 -8 5 135 11 346 14 l360 5 -5 180 -5 180
-415 -36z"/>
<path d="M11360 3400 c-30 -30 -28 -103 5 -136 l24 -24 685 2 c642 3 686 4
703 21 25 25 25 108 -1 136 -19 21 -20 21 -708 21 -675 0 -688 0 -708 -20z"/>
</g>
</svg>
